<?xml version="1.0" standalone="no"?>
<!DOCTYPE svg PUBLIC "-//W3C//DTD SVG 20010904//EN"
 "http://www.w3.org/TR/2001/REC-SVG-20010904/DTD/svg10.dtd">
<svg version="1.0" xmlns="http://www.w3.org/2000/svg"
 width="1230.000000pt" height="1230.000000pt" viewBox="0 0 1230.000000 1230.000000"
 preserveAspectRatio="xMidYMid meet">
<metadata>
Created by potrace 1.11, written by Peter Selinger 2001-2013
</metadata>
<g transform="translate(0.000000,1230.000000) scale(0.100000,-0.100000)"
fill="#000000" stroke="none">
<path d="M5848 12295 c-2 -2 -48 -6 -103 -9 -152 -10 -296 -24 -335 -31 -10
-2 -45 -6 -77 -10 -32 -3 -85 -10 -118 -16 -33 -6 -73 -13 -90 -15 -16 -2 -41
-6 -55 -9 -34 -7 -64 -13 -135 -26 -49 -8 -160 -34 -365 -84 -199 -49 -537
-164 -800 -273 -746 -310 -1450 -791 -2025 -1384 -191 -196 -303 -325 -466
-533 -308 -393 -614 -921 -804 -1385 -26 -63 -51 -124 -56 -135 -22 -48 -89
-241 -128 -365 -23 -74 -49 -155 -56 -180 -43 -135 -134 -553 -160 -735 -4
-22 -8 -50 -10 -61 -2 -12 -7 -48 -10 -80 -4 -33 -9 -68 -11 -79 -2 -11 -7
-51 -10 -90 -3 -38 -7 -81 -10 -95 -11 -68 -18 -284 -18 -545 0 -353 6 -475
44 -790 13 -107 12 -101 44 -285 32 -179 27 -157 77 -365 17 -71 32 -137 34
-145 8 -37 83 -292 96 -325 4 -11 20 -56 34 -100 105 -308 292 -727 440 -985
21 -36 49 -85 63 -110 41 -74 198 -318 269 -420 373 -535 833 -1010 1358
-1401 88 -66 165 -123 170 -127 40 -32 361 -235 452 -287 177 -100 440 -232
601 -301 59 -25 125 -54 147 -64 93 -41 343 -128 555 -194 222 -68 650 -163
865 -191 382 -50 507 -59 875 -59 261 -1 448 6 575 19 22 2 69 7 105 10 36 3
92 10 125 15 33 5 80 12 105 15 25 3 97 15 160 26 150 25 172 29 190 34 8 2
29 7 45 9 200 35 724 193 954 288 53 22 101 41 106 42 51 14 336 148 525 247
419 220 840 511 1210 837 71 62 456 445 511 508 260 298 504 630 688 938 39
65 71 120 71 122 0 2 14 27 31 56 33 56 219 422 219 432 0 3 14 35 30 71 45
98 154 370 164 410 2 6 6 17 9 25 25 57 149 471 162 539 2 9 8 36 15 61 7 25
13 52 15 60 2 8 15 71 29 140 14 69 28 143 31 165 4 22 8 47 10 55 2 8 7 38
11 65 3 28 8 59 10 70 2 11 7 43 10 70 3 28 7 61 10 75 2 14 6 56 10 95 3 38
7 81 9 94 26 161 26 879 1 1101 -3 19 -7 64 -11 100 -3 36 -8 85 -11 110 -8
71 -54 363 -59 369 -2 4 -6 27 -10 51 -3 25 -10 61 -15 80 -5 19 -12 51 -15
70 -3 19 -24 105 -45 190 -127 495 -330 1010 -562 1429 -35 62 -84 149 -97
171 -5 8 -29 47 -52 85 -155 258 -499 724 -639 865 -14 14 -43 46 -64 70 -107
124 -368 378 -524 513 -676 582 -1464 1010 -2312 1256 -108 31 -372 97 -425
107 -16 3 -73 13 -125 24 -52 10 -113 21 -135 25 -23 3 -50 7 -60 9 -11 2 -42
7 -70 10 -27 4 -63 9 -80 11 -106 15 -264 32 -380 41 -60 5 -733 13 -737 9z"/>
</g>
</svg>
